<?xml version="1.0" encoding="UTF-8"?>
<svg id="svg2" xmlns="http://www.w3.org/2000/svg" viewBox="0 0 370.67 266.67">
  <defs>
    <style>
      .cls-1 {
        fill: #fff;
      }

      .cls-1, .cls-2, .cls-3 {
        fill-rule: evenodd;
      }

      .cls-2 {
        fill: #008a3d;
      }

      .cls-3 {
        fill: #6bb53f;
      }
    </style>
  </defs>
  <g id="g10">
    <g id="g12">
      <path id="path14" class="cls-2" d="M309.6,188.72c-14.89,13.06-30.71,23.8-47.46,32.2-16.71,8.44-33.73,14.73-51.07,18.86-17.33,4.14-34.33,6.29-51,6.47-16.67.18-32.38-1.47-47.14-4.93-14.8-3.42-28.02-8.51-39.67-15.27-11.64-6.71-21.11-14.91-28.4-24.6-7.29-9.69-11.75-20.69-13.4-33-1.87-14.58-.6-28.86,3.8-42.86,4.4-14,12.07-27.38,23-40.14,10.94-12.75,25.31-24.53,43.14-35.33-18.18,6.67-34.14,15.11-47.87,25.33-13.73,10.22-24.94,21.6-33.6,34.14-8.71,12.53-14.6,25.6-17.67,39.2-3.06,13.6-3.02,27.14.14,40.6,3.29,13.37,9.42,25.13,18.4,35.27,8.98,10.18,20.24,18.58,33.8,25.2,13.56,6.62,28.8,11.29,45.73,14,16.98,2.71,35.05,3.29,54.2,1.73,19.2-1.56,38.93-5.42,59.2-11.6,21.02-6.54,40.42-14.89,58.2-25.07,17.82-10.18,33.54-21.6,47.14-34.27,13.6-12.71,24.65-26.11,33.13-40.2h-13.13c-6.8,11.33-16.62,22.75-29.47,34.27"/>
      <path id="path16" class="cls-3" d="M367.4,77.05c-3.29-13.38-9.42-25.16-18.4-35.33-8.98-10.18-20.25-18.58-33.8-25.2-13.56-6.58-28.8-11.22-45.73-13.93-16.98-2.71-35.05-3.29-54.2-1.73-19.2,1.56-38.93,5.42-59.2,11.6-3.73,1.16-7.44,2.4-11.14,3.73v41.8c26.31-11.24,51.16-18.07,74.54-20.47,23.37-2.4,44.33-1.2,62.86,3.6,18.54,4.75,33.69,12.27,45.47,22.54,11.82,10.27,19.31,22.4,22.46,36.4,3.16,14,1.07,29.04-6.27,45.13h13.27c5.73-11.33,9.52-22.76,11.33-34.27,1.82-11.51,1.42-22.8-1.2-33.87"/>
      <path id="path18" class="cls-1" d="M81.85,113.97l12.4,31.34,12.41-31.34h5.31v36.55h-4.15v-27.63l-11.19,27.63h-4.98l-11.24-27.69v27.69h-4.15v-36.55h5.59ZM144.09,146.65v3.88h-21.15v-36.55h20.05v3.88h-15.89v11.35h12.18v3.88h-12.18v13.57h16.99ZM151.84,150.52v-36.55h.22c1.18-.07,2.49-.13,3.93-.19,1.44-.05,2.81-.08,4.1-.08,1.99,0,3.8.25,5.43.75,1.62.49,3.01,1.25,4.18,2.24,1.17,1,2.07,2.22,2.71,3.68.65,1.46.97,3.15.97,5.07,0,1.55-.25,3.01-.77,4.37-.52,1.37-1.29,2.57-2.33,3.6-1.03,1.03-2.35,1.85-3.96,2.46-1.6.61-3.48.92-5.62.92-1.77,0-3.34-.06-4.71-.17v13.9h-4.15ZM160.43,117.35c-.78,0-1.54,0-2.3.03-.76.02-1.47.05-2.14.08v15.51c1.33.11,2.84.17,4.54.17,2.73,0,4.79-.69,6.17-2.08,1.39-1.39,2.08-3.41,2.08-6.06,0-1.15-.15-2.19-.44-3.13-.3-.94-.77-1.74-1.41-2.41-.65-.67-1.51-1.18-2.57-1.55-1.07-.37-2.39-.55-3.93-.55h0ZM187.72,113.97v36.55h-4.15v-29.13l-5.32,2.55-1.22-3.87,10.69-6.09ZM212.25,150.52v-36.55c1.18-.07,2.56-.13,4.15-.19,1.59-.05,3.05-.08,4.37-.08,3.29,0,5.93.8,7.92,2.41,2,1.6,2.99,3.97,2.99,7.11,0,1.47-.3,2.81-.91,4.02-.61,1.2-1.56,2.22-2.85,3.07,2.22.73,3.95,1.9,5.21,3.49,1.25,1.59,1.88,3.6,1.88,6.04,0,1.55-.28,3.01-.83,4.37-.56,1.37-1.41,2.57-2.55,3.6-1.15,1.04-2.57,1.85-4.27,2.46-1.7.61-3.69.92-5.98.92-1.81,0-3.49-.07-5.04-.2-1.55-.13-2.91-.28-4.09-.47h0ZM221.22,147.53c2.99,0,5.27-.69,6.84-2.08,1.57-1.38,2.35-3.4,2.35-6.06,0-2.1-.71-3.78-2.13-5.01-1.42-1.23-3.81-1.85-7.17-1.85-.81,0-1.61,0-2.41.03-.79.02-1.56.05-2.3.08v14.73c1.44.11,3.05.17,4.82.17h0ZM219.79,129.37c2.32,0,4.13-.59,5.4-1.77,1.28-1.18,1.91-2.79,1.91-4.82,0-1.63-.44-2.94-1.33-3.93s-2.44-1.49-4.65-1.49c-.81,0-1.61,0-2.41.03-.79.02-1.56.05-2.3.08v11.85c.51.04,1.06.06,1.63.06h1.75ZM247.36,150.52h-4.15v-36.55h4.15v36.55ZM263.92,113.97l12.4,31.34,12.41-31.34h5.31v36.55h-4.15v-27.63l-11.19,27.63h-4.98l-11.25-27.69v27.69h-4.15v-36.55h5.59Z"/>
    </g>
  </g>
</svg>